<svg width="800" height="127" viewBox="0 0 800 127" fill="none" xmlns="http://www.w3.org/2000/svg">
<path d="M536.794 49.1549C546.28 49.1549 553.746 51.1601 559.19 55.1697C563.939 58.6473 566.973 63.216 568.29 68.876C568.623 70.307 567.527 71.6267 566.061 71.717L551.911 72.5874C550.646 72.6652 549.553 71.7769 549.035 70.6206C548.67 69.8055 548.192 69.0395 547.601 68.3229C546.525 66.9864 545.107 65.9264 543.347 65.1441C541.619 64.3291 539.549 63.9222 537.137 63.9222C533.91 63.9222 531.187 64.6059 528.971 65.975C526.754 67.3115 525.646 69.1052 525.646 71.3544C525.646 73.1471 526.363 74.6631 527.797 75.9017C529.231 77.1404 531.693 78.1346 535.181 78.8844L548.774 81.6227C556.076 83.1222 561.521 85.5344 565.107 88.8594C568.692 92.1843 570.485 96.5526 570.485 101.964C570.485 106.886 569.034 111.206 566.133 114.922C563.264 118.638 559.32 121.539 554.3 123.626C549.313 125.679 543.558 126.706 537.039 126.706C527.096 126.706 519.175 124.636 513.275 120.496C508.169 116.865 504.902 112.098 503.474 106.196C503.125 104.751 504.235 103.413 505.72 103.335L521.266 102.518C522.519 102.452 523.599 103.328 524.056 104.496C524.849 106.523 526.145 108.14 527.944 109.348C530.324 110.912 533.372 111.694 537.088 111.694C540.739 111.694 543.672 110.993 545.889 109.591C548.138 108.157 549.28 106.316 549.312 104.067C549.28 102.176 548.481 100.627 546.917 99.4209C545.352 98.1822 542.939 97.2374 539.679 96.5855L526.673 93.9938C519.338 92.5269 513.878 89.9838 510.292 86.3655C506.739 82.7471 504.962 78.1342 504.962 72.5274C504.962 67.703 506.266 63.5465 508.874 60.0585C511.514 56.5707 515.214 53.8816 519.973 51.9909C524.765 50.1002 530.373 49.1549 536.794 49.1549Z" fill="black"/>
<path fill-rule="evenodd" clip-rule="evenodd" d="M357.374 49.1549C361.546 49.1549 365.54 49.6438 369.354 50.6218C373.2 51.5997 376.607 53.1161 379.573 55.1697C382.572 57.2233 384.936 59.8631 386.663 63.0901C388.391 66.2846 389.254 70.1156 389.254 74.5814V122.705C389.254 124.105 388.12 125.239 386.72 125.239H372.035C370.635 125.239 369.5 124.105 369.5 122.705V115.189C369.5 114.987 369.337 114.824 369.136 114.824C368.999 114.824 368.874 114.901 368.811 115.022C367.616 117.287 366.036 119.292 364.072 121.034C362.051 122.794 359.622 124.18 356.787 125.19C353.951 126.168 350.675 126.657 346.959 126.657C342.167 126.657 337.896 125.826 334.147 124.164C330.398 122.469 327.432 119.974 325.248 116.682C323.097 113.357 322.021 109.217 322.021 104.262C322.021 100.09 322.787 96.5855 324.319 93.7495C325.851 90.9135 327.937 88.6308 330.577 86.9031C333.218 85.1755 336.217 83.872 339.575 82.9918C342.965 82.1117 346.518 81.4919 350.234 81.1333C354.602 80.6769 358.123 80.2531 360.796 79.8619C363.469 79.4381 365.409 78.8189 366.616 78.004C367.821 77.1891 368.424 75.983 368.424 74.3859V74.0927C368.424 70.9959 367.446 68.6 365.49 66.9048C363.567 65.2098 360.829 64.3615 357.276 64.3614C353.527 64.3615 350.545 65.1935 348.328 66.856C346.714 68.0428 345.497 69.4541 344.678 71.0902C344.139 72.1676 343.064 72.9467 341.863 72.8491L327.538 71.686C326.013 71.562 324.935 70.1199 325.401 68.6625C326.487 65.2613 328.164 62.2469 330.431 59.6192C333.3 56.2617 336.999 53.686 341.53 51.8932C346.094 50.0677 351.376 49.1549 357.374 49.1549ZM368.571 93.3665C368.571 92.0995 367.09 91.2178 365.882 91.5977C364.774 91.9236 363.519 92.2336 362.117 92.5269C360.715 92.7877 359.313 93.0319 357.911 93.2601C356.51 93.4556 355.239 93.6353 354.098 93.7983C351.653 94.1569 349.517 94.7272 347.692 95.5096C345.866 96.292 344.448 97.3519 343.438 98.6884C342.428 99.9922 341.922 101.622 341.922 103.577C341.922 106.413 342.949 108.581 345.003 110.081C347.089 111.548 349.73 112.281 352.924 112.281C355.988 112.281 358.694 111.678 361.041 110.472C363.388 109.234 365.23 107.571 366.567 105.485C367.903 103.398 368.571 101.035 368.571 98.3945V93.3665Z" fill="black"/>
<path fill-rule="evenodd" clip-rule="evenodd" d="M463.749 49.1549C467.921 49.1549 471.914 49.6439 475.728 50.6218C479.575 51.5997 482.981 53.116 485.947 55.1697C488.946 57.2233 491.311 59.863 493.038 63.0901C494.766 66.2846 495.63 70.1156 495.63 74.5814V122.705C495.63 124.105 494.495 125.239 493.096 125.239H478.409C477.01 125.239 475.875 124.105 475.875 122.705V115.189C475.875 114.987 475.712 114.824 475.51 114.824C475.374 114.824 475.249 114.901 475.186 115.022C473.991 117.287 472.412 119.292 470.448 121.034C468.427 122.794 465.997 124.18 463.161 125.19C460.326 126.168 457.05 126.657 453.334 126.657C448.542 126.657 444.271 125.826 440.522 124.164C436.773 122.469 433.807 119.974 431.623 116.682C429.471 113.357 428.396 109.217 428.396 104.262C428.396 100.09 429.162 96.5854 430.694 93.7495C432.226 90.9134 434.312 88.6308 436.953 86.9031C439.593 85.1755 442.592 83.8719 445.95 82.9918C449.34 82.1117 452.893 81.4919 456.61 81.1333C460.978 80.6769 464.499 80.2531 467.172 79.8619C469.845 79.4381 471.784 78.8189 472.99 78.004C474.196 77.1891 474.799 75.9831 474.799 74.3859V74.0927C474.799 70.996 473.821 68.5999 471.866 66.9048C469.942 65.2098 467.204 64.3615 463.651 64.3614C459.902 64.3615 456.919 65.1935 454.702 66.856C453.088 68.0427 451.872 69.4541 451.053 71.0902C450.513 72.1676 449.439 72.9467 448.238 72.8491L433.914 71.686C432.389 71.5621 431.311 70.12 431.776 68.6625C432.863 65.2613 434.539 62.2469 436.806 59.6192C439.675 56.2616 443.375 53.6861 447.906 51.8932C452.47 50.0677 457.751 49.1549 463.749 49.1549ZM474.946 93.3671C474.946 92.0999 473.466 91.2178 472.257 91.5977C471.148 91.9236 469.894 92.2336 468.492 92.5269C467.09 92.7877 465.688 93.0319 464.287 93.2601C462.885 93.4557 461.613 93.6353 460.472 93.7983C458.027 94.1569 455.892 94.7273 454.067 95.5096C452.241 96.2919 450.823 97.3519 449.813 98.6884C448.802 99.9922 448.297 101.622 448.297 103.577C448.297 106.413 449.324 108.581 451.377 110.081C453.464 111.548 456.104 112.281 459.299 112.281C462.363 112.281 465.069 111.678 467.416 110.472C469.763 109.234 471.605 107.571 472.942 105.485C474.278 103.398 474.946 101.035 474.946 98.3945V93.3671Z" fill="black"/>
<path fill-rule="evenodd" clip-rule="evenodd" d="M609.926 49.1549C614.098 49.1549 618.092 49.6438 621.906 50.6218C625.752 51.5997 629.159 53.116 632.125 55.1697C635.124 57.2233 637.488 59.8629 639.216 63.0901C640.944 66.2846 641.807 70.1156 641.807 74.5814V122.705C641.807 124.105 640.672 125.239 639.273 125.239H624.587C623.187 125.239 622.053 124.105 622.053 122.705V115.189C622.053 114.987 621.889 114.824 621.688 114.824C621.552 114.824 621.426 114.901 621.363 115.022C620.168 117.287 618.589 119.292 616.625 121.034C614.604 122.794 612.175 124.18 609.339 125.19C606.503 126.168 603.227 126.657 599.511 126.657C594.719 126.657 590.448 125.826 586.699 124.164C582.951 122.469 579.984 119.974 577.8 116.682C575.649 113.357 574.573 109.217 574.573 104.262C574.573 100.09 575.339 96.5855 576.871 93.7495C578.404 90.9134 580.49 88.6308 583.131 86.9031C585.771 85.1756 588.77 83.8719 592.128 82.9918C595.518 82.1117 599.071 81.4919 602.787 81.1333C607.155 80.6769 610.676 80.2531 613.349 79.8619C616.022 79.4381 617.962 78.8189 619.168 78.004C620.374 77.1891 620.977 75.9831 620.977 74.3859V74.0927C620.977 70.9961 619.999 68.5999 618.043 66.9048C616.12 65.2097 613.381 64.3614 609.828 64.3614C606.079 64.3615 603.097 65.1935 600.88 66.856C599.266 68.0427 598.049 69.4541 597.23 71.0902C596.691 72.1676 595.616 72.9467 594.415 72.8491L580.092 71.686C578.567 71.5622 577.489 70.1201 577.954 68.6625C579.04 65.2614 580.717 62.2468 582.983 59.6192C585.852 56.2616 589.553 53.6861 594.084 51.8932C598.647 50.0678 603.928 49.1549 609.926 49.1549ZM621.124 93.3671C621.124 92.0999 619.643 91.2177 618.434 91.5977C617.326 91.9236 616.071 92.2336 614.669 92.5269C613.268 92.7877 611.866 93.0319 610.464 93.2601C609.062 93.4556 607.791 93.6353 606.65 93.7983C604.205 94.1569 602.069 94.7273 600.244 95.5096C598.419 96.2919 597 97.3519 595.99 98.6884C594.98 99.9922 594.474 101.622 594.474 103.577C594.474 106.413 595.501 108.581 597.555 110.081C599.641 111.548 602.282 112.281 605.476 112.281C608.54 112.281 611.247 111.679 613.594 110.472C615.941 109.234 617.782 107.571 619.119 105.485C620.455 103.398 621.124 101.035 621.124 98.3945V93.3671Z" fill="black"/>
<path d="M782.388 32.1386C783.787 32.1386 784.922 33.2732 784.922 34.6728V47.5989C784.922 48.9982 786.057 50.1329 787.456 50.133H796.519C797.918 50.1331 799.053 51.2676 799.053 52.6671V63.2453C799.053 64.6448 797.918 65.7794 796.519 65.7795H787.456C786.056 65.7796 784.922 66.9141 784.922 68.3136V102.159C784.922 104.082 785.215 105.582 785.802 106.658C786.389 107.701 787.204 108.434 788.247 108.858C789.322 109.282 790.561 109.494 791.963 109.494C792.941 109.494 793.919 109.413 794.897 109.25C796.146 109 797.357 109.806 797.62 111.053L799.945 122.055C800.215 123.334 799.468 124.605 798.2 124.922C797.55 125.084 796.824 125.255 796.022 125.435C794.131 125.891 791.832 126.168 789.127 126.266C784.107 126.461 779.706 125.794 775.925 124.262C772.176 122.73 769.258 120.349 767.172 117.122C765.151 113.996 764.124 110.074 764.091 105.357V68.3136C764.091 66.9141 762.957 65.7796 761.557 65.7795H756.357C754.957 65.7793 753.822 64.6448 753.822 63.2453V52.6671C753.822 51.2677 754.957 50.1331 756.357 50.133H761.557C762.957 50.1328 764.091 48.9982 764.091 47.5989V34.6728C764.091 33.2732 765.226 32.1386 766.625 32.1386H782.388Z" fill="black"/>
<path d="M229.855 25.0968C230.884 25.0969 231.81 25.7186 232.2 26.6701L258.911 91.8371C259.046 92.1655 259.365 92.3803 259.72 92.3803C260.075 92.3803 260.395 92.1655 260.53 91.8371L287.241 26.6701C287.631 25.7186 288.557 25.0968 289.585 25.0968H311.462C312.861 25.0968 313.996 26.2314 313.996 27.6309V122.705C313.996 124.105 312.861 125.239 311.462 125.239H295.994C294.594 125.239 293.46 124.105 293.46 122.705V60.5547C293.46 60.2807 293.237 60.0585 292.963 60.0585C292.761 60.0585 292.578 60.1822 292.503 60.3703L267.351 123.158C266.965 124.119 266.033 124.75 264.998 124.75H254.445C253.408 124.75 252.476 124.118 252.091 123.155L226.936 60.1259C226.861 59.9378 226.679 59.8143 226.477 59.8141C226.203 59.8141 225.981 60.0356 225.981 60.3091V122.705C225.981 124.105 224.847 125.239 223.447 125.239H207.977C206.578 125.239 205.443 124.104 205.443 122.705V27.6309C205.443 26.2314 206.579 25.0968 207.978 25.0968H229.855Z" fill="black"/>
<path d="M418.204 25.0968C419.603 25.0969 420.738 26.2314 420.738 27.6309V122.705C420.738 124.104 419.603 125.239 418.204 125.239H402.442C401.042 125.239 399.907 124.105 399.907 122.705V27.6309C399.907 26.2314 401.042 25.0968 402.442 25.0968H418.204Z" fill="black"/>
<path d="M670.756 25.0968C672.156 25.0968 673.291 26.2314 673.291 27.6309V77.8722C673.291 78.2962 673.634 78.64 674.058 78.64C674.284 78.64 674.499 78.54 674.645 78.3672L697.713 51.0326C698.194 50.462 698.904 50.133 699.65 50.133H716.877C719.042 50.133 720.21 52.6712 718.802 54.3153L695.794 81.1871C695.047 82.0594 694.98 83.325 695.63 84.2712L721.071 121.269C722.227 122.95 721.024 125.239 718.983 125.239H700.748C699.906 125.239 699.119 124.821 698.648 124.124L680.775 97.6707C679.845 96.2941 677.864 96.1703 676.769 97.4201L673.918 100.676C673.514 101.138 673.291 101.731 673.291 102.345V122.705C673.291 124.105 672.156 125.239 670.756 125.239H654.994C653.595 125.239 652.46 124.104 652.46 122.705V27.6309C652.46 26.2314 653.595 25.0969 654.994 25.0968H670.756Z" fill="black"/>
<path d="M745.391 50.133C746.791 50.133 747.925 51.2676 747.925 52.6671V122.705C747.925 124.105 746.791 125.239 745.391 125.239H729.63C728.23 125.239 727.095 124.105 727.095 122.705V52.6671C727.095 51.2676 728.23 50.133 729.63 50.133H745.391Z" fill="black"/>
<path d="M737.559 19.3759C740.656 19.3759 743.297 20.419 745.481 22.5051C747.697 24.5588 748.806 27.0206 748.806 29.8891C748.806 32.7901 747.697 35.284 745.481 37.3702C743.297 39.4238 740.656 40.4506 737.559 40.4506C734.462 40.4506 731.805 39.4239 729.589 37.3702C727.405 35.284 726.313 32.7902 726.313 29.8891C726.313 27.0206 727.405 24.5588 729.589 22.5051C731.805 20.419 734.462 19.3759 737.559 19.3759Z" fill="black"/>
<path d="M25.124 0C52.8747 0.000164749 75.3709 22.4964 75.3711 50.2471V115.569C75.371 121.119 70.8714 125.618 65.3213 125.618H10.0498C4.4997 125.618 0.000123569 121.119 0 115.569V10.0498C0 4.49963 4.49963 0 10.0498 0H25.124ZM92.1211 25.124C115.247 25.1241 133.994 43.8706 133.994 66.9961V115.569C133.994 121.119 129.494 125.618 123.944 125.618H93.7959C88.2458 125.618 83.7463 121.119 83.7461 115.569V33.498C83.7462 28.873 87.496 25.124 92.1211 25.124ZM147.393 50.2471C158.493 50.2471 167.491 59.2463 167.491 70.3467V115.569C167.491 121.119 162.992 125.618 157.442 125.618H152.417C146.867 125.618 142.368 121.119 142.368 115.569V55.2725C142.368 52.4974 144.618 50.2471 147.393 50.2471Z" fill="black"/>
</svg>
