<svg width="595" height="108" viewBox="0 0 595 108" fill="none" xmlns="http://www.w3.org/2000/svg">
<path d="M331.351 29.779C340.837 29.779 348.302 31.7843 353.746 35.7938C358.496 39.2714 361.53 43.8401 362.846 49.5001C363.179 50.9311 362.084 52.2509 360.617 52.3411L346.467 53.2116C345.203 53.2894 344.109 52.4011 343.592 51.2448C343.227 50.4297 342.749 49.6637 342.158 48.947C341.082 47.6105 339.664 46.5506 337.904 45.7682C336.176 44.9533 334.106 44.5463 331.693 44.5463C328.466 44.5464 325.744 45.2301 323.527 46.5991C321.311 47.9356 320.202 49.7293 320.202 51.9785C320.203 53.7713 320.919 55.2872 322.354 56.5259C323.788 57.7646 326.25 58.7588 329.738 59.5085L343.331 62.2468C350.633 63.7463 356.077 66.1585 359.663 69.4835C363.249 72.8085 365.041 77.1768 365.041 82.5878C365.041 87.5101 363.591 91.8299 360.69 95.5461C357.821 99.2622 353.877 102.163 348.857 104.25C343.869 106.303 338.115 107.33 331.595 107.33C321.653 107.33 313.732 105.26 307.831 101.12C302.725 97.4889 299.459 92.7221 298.031 86.8202C297.681 85.3751 298.792 84.0369 300.277 83.9588L315.823 83.1422C317.075 83.0764 318.156 83.9521 318.613 85.1201C319.406 87.1471 320.702 88.7644 322.501 89.9718C324.88 91.5364 327.928 92.3184 331.644 92.3185C335.295 92.3185 338.229 91.6173 340.446 90.2156C342.695 88.7813 343.836 86.94 343.869 84.6907C343.836 82.8001 343.038 81.2512 341.473 80.0451C339.909 78.8064 337.496 77.8616 334.236 77.2096L321.229 74.618C313.895 73.1511 308.434 70.608 304.849 66.9896C301.296 63.3712 299.519 58.7584 299.519 53.1516C299.519 48.3271 300.823 44.1706 303.431 40.6827C306.071 37.1949 309.771 34.5057 314.53 32.615C319.322 30.7244 324.929 29.779 331.351 29.779Z" fill="black"/>
<path fill-rule="evenodd" clip-rule="evenodd" d="M151.93 29.779C156.103 29.779 160.097 30.268 163.91 31.2459C167.757 32.2239 171.163 33.7402 174.13 35.7938C177.129 37.8474 179.492 40.4872 181.22 43.7142C182.948 46.9088 183.811 50.7397 183.811 55.2056V103.329C183.811 104.729 182.676 105.863 181.277 105.863H166.591C165.192 105.863 164.057 104.729 164.057 103.329V95.8128C164.057 95.6115 163.894 95.4484 163.693 95.4484C163.556 95.4484 163.431 95.5249 163.367 95.6457C162.173 97.9116 160.593 99.9157 158.629 101.658C156.608 103.418 154.179 104.804 151.343 105.814C148.507 106.792 145.231 107.281 141.515 107.281C136.723 107.281 132.453 106.45 128.704 104.788C124.955 103.093 121.989 100.599 119.805 97.3063C117.653 93.9813 116.578 89.8411 116.578 84.8862C116.578 80.7137 117.344 77.2096 118.876 74.3736C120.408 71.5376 122.494 69.2549 125.134 67.5273C127.774 65.7996 130.774 64.4961 134.131 63.616C137.521 62.7359 141.075 62.116 144.791 61.7574C149.159 61.3011 152.68 60.8772 155.353 60.486C158.026 60.0623 159.966 59.4431 161.172 58.6281C162.378 57.8132 162.981 56.6072 162.981 55.0101V54.7168C162.981 51.62 162.003 49.2241 160.047 47.529C158.124 45.834 155.386 44.9856 151.833 44.9856C148.084 44.9856 145.101 45.8177 142.885 47.4801C141.271 48.6669 140.054 50.0782 139.235 51.7144C138.696 52.7917 137.621 53.5708 136.42 53.4733L122.095 52.3102C120.57 52.1862 119.492 50.7441 119.957 49.2867C121.044 45.8855 122.721 42.871 124.988 40.2434C127.857 36.8859 131.556 34.3102 136.087 32.5173C140.651 30.6918 145.932 29.779 151.93 29.779ZM163.128 73.9906C163.128 72.7237 161.647 71.8419 160.438 72.2218C159.33 72.5478 158.075 72.8577 156.674 73.1511C155.272 73.4119 153.87 73.656 152.468 73.8842C151.066 74.0798 149.795 74.2595 148.654 74.4225C146.21 74.781 144.074 75.3514 142.249 76.1337C140.423 76.9161 139.005 77.976 137.994 79.3125C136.984 80.6163 136.479 82.2458 136.479 84.2014C136.479 87.0373 137.506 89.2054 139.559 90.7049C141.645 92.1718 144.286 92.9056 147.481 92.9056C150.545 92.9055 153.25 92.3025 155.597 91.0966C157.944 89.8578 159.787 88.195 161.123 86.1087C162.46 84.0225 163.128 81.659 163.128 79.0187V73.9906Z" fill="black"/>
<path fill-rule="evenodd" clip-rule="evenodd" d="M258.305 29.779C262.478 29.779 266.471 30.268 270.285 31.2459C274.131 32.2238 277.538 33.7402 280.504 35.7938C283.503 37.8475 285.867 40.4871 287.595 43.7142C289.323 46.9088 290.186 50.7397 290.186 55.2056V103.329C290.186 104.729 289.052 105.863 287.652 105.863H272.966C271.567 105.863 270.432 104.729 270.432 103.329V95.8128C270.432 95.6114 270.268 95.4484 270.067 95.4484C269.93 95.4485 269.806 95.5249 269.742 95.6457C268.548 97.9115 266.968 99.9157 265.004 101.658C262.983 103.418 260.554 104.804 257.718 105.814C254.882 106.792 251.606 107.281 247.89 107.281C243.098 107.281 238.827 106.45 235.079 104.788C231.33 103.093 228.364 100.599 226.18 97.3063C224.028 93.9813 222.953 89.8411 222.952 84.8862C222.953 80.7138 223.718 77.2096 225.25 74.3736C226.782 71.5375 228.869 69.255 231.509 67.5273C234.15 65.7997 237.149 64.4961 240.506 63.616C243.897 62.7358 247.45 62.116 251.166 61.7574C255.534 61.3011 259.055 60.8772 261.728 60.486C264.401 60.0623 266.341 59.4431 267.547 58.6281C268.753 57.8132 269.356 56.6072 269.356 55.0101V54.7168C269.356 51.6201 268.378 49.2241 266.422 47.529C264.499 45.8339 261.761 44.9856 258.207 44.9856C254.459 44.9856 251.476 45.8176 249.259 47.4801C247.645 48.6669 246.428 50.0782 245.609 51.7144C245.07 52.7917 243.996 53.5708 242.795 53.4733L228.471 52.3102C226.946 52.1862 225.868 50.7441 226.333 49.2867C227.419 45.8854 229.096 42.871 231.363 40.2434C234.231 36.8858 237.932 34.3102 242.463 32.5173C247.026 30.6919 252.307 29.779 258.305 29.779ZM269.503 73.9912C269.503 72.7241 268.022 71.842 266.813 72.2218C265.705 72.5478 264.45 72.8577 263.049 73.1511C261.647 73.4118 260.245 73.656 258.843 73.8842C257.442 74.0798 256.17 74.2595 255.029 74.4225C252.584 74.781 250.449 75.3515 248.623 76.1337C246.798 76.9161 245.38 77.9761 244.369 79.3125C243.359 80.6163 242.854 82.2458 242.854 84.2014C242.854 87.0373 243.88 89.2054 245.934 90.7049C248.02 92.1718 250.661 92.9056 253.856 92.9056C256.92 92.9056 259.626 92.3026 261.973 91.0966C264.32 89.8578 266.162 88.195 267.498 86.1087C268.835 84.0225 269.503 81.659 269.503 79.0187V73.9912Z" fill="black"/>
<path fill-rule="evenodd" clip-rule="evenodd" d="M404.482 29.779C408.655 29.779 412.649 30.268 416.463 31.2459C420.309 32.2239 423.716 33.7402 426.682 35.7938C429.681 37.8475 432.045 40.4871 433.773 43.7142C435.5 46.9088 436.364 50.7397 436.364 55.2056V103.329C436.364 104.729 435.229 105.863 433.83 105.863H419.143C417.744 105.863 416.609 104.729 416.609 103.329V95.8128C416.609 95.6115 416.446 95.4484 416.245 95.4484C416.108 95.4484 415.983 95.5249 415.919 95.6457C414.725 97.9114 413.146 99.9157 411.182 101.658C409.161 103.418 406.732 104.804 403.896 105.814C401.06 106.792 397.784 107.281 394.068 107.281C389.276 107.281 385.005 106.45 381.256 104.788C377.507 103.093 374.541 100.599 372.357 97.3063C370.205 93.9813 369.13 89.8411 369.13 84.8862C369.13 80.7138 369.896 77.2096 371.428 74.3736C372.96 71.5375 375.047 69.255 377.687 67.5273C380.328 65.7997 383.327 64.4961 386.684 63.616C390.074 62.7358 393.628 62.116 397.344 61.7574C401.712 61.3011 405.233 60.8772 407.906 60.486C410.578 60.0623 412.518 59.443 413.724 58.6281C414.93 57.8132 415.534 56.6072 415.534 55.0101V54.7168C415.534 51.6202 414.556 49.2241 412.6 47.529C410.677 45.8339 407.938 44.9856 404.385 44.9856C400.636 44.9856 397.653 45.8176 395.437 47.4801C393.823 48.6669 392.606 50.0782 391.787 51.7144C391.248 52.7917 390.173 53.5708 388.972 53.4733L374.648 52.3102C373.123 52.1863 372.045 50.7442 372.511 49.2867C373.597 45.8855 375.273 42.871 377.54 40.2434C380.409 36.8858 384.109 34.3102 388.64 32.5173C393.204 30.6919 398.485 29.779 404.482 29.779ZM415.681 73.9912C415.68 72.724 414.199 71.8419 412.991 72.2218C411.882 72.5478 410.627 72.8577 409.226 73.1511C407.824 73.4118 406.422 73.656 405.021 73.8842C403.619 74.0798 402.347 74.2595 401.206 74.4225C398.762 74.7811 396.626 75.3514 394.801 76.1337C392.975 76.9161 391.557 77.9761 390.547 79.3125C389.536 80.6163 389.031 82.2459 389.031 84.2014C389.031 87.0373 390.058 89.2054 392.111 90.7049C394.197 92.1718 396.838 92.9056 400.033 92.9056C403.097 92.9056 405.803 92.3027 408.151 91.0966C410.497 89.8579 412.339 88.1949 413.675 86.1087C415.012 84.0225 415.681 81.659 415.681 79.0187V73.9912Z" fill="black"/>
<path d="M576.944 12.7628C578.344 12.7628 579.478 13.8974 579.478 15.2969V28.223C579.479 29.6224 580.613 30.757 582.013 30.7571H591.076C592.475 30.7572 593.61 31.8918 593.61 33.2913V43.8695C593.61 45.269 592.475 46.4035 591.076 46.4036H582.013C580.613 46.4037 579.478 47.5383 579.478 48.9377V82.7833C579.478 84.7065 579.772 86.206 580.359 87.2818C580.945 88.3248 581.76 89.0586 582.803 89.4824C583.879 89.9062 585.118 90.1178 586.52 90.1178C587.497 90.1178 588.475 90.037 589.453 89.874C590.703 89.6241 591.913 90.43 592.177 91.6769L594.502 102.68C594.772 103.958 594.024 105.229 592.757 105.546C592.107 105.708 591.381 105.879 590.578 106.059C588.688 106.515 586.389 106.792 583.684 106.89C578.664 107.085 574.263 106.418 570.482 104.886C566.733 103.354 563.815 100.973 561.728 97.7462C559.707 94.6199 558.681 90.6982 558.648 85.9813V48.9377C558.648 47.5383 557.513 46.4038 556.114 46.4036H550.913C549.514 46.4035 548.379 45.269 548.379 43.8695V33.2913C548.379 31.8918 549.514 30.7573 550.913 30.7571H556.114C557.513 30.757 558.648 29.6224 558.648 28.223V15.2969C558.648 13.8974 559.783 12.7628 561.182 12.7628H576.944Z" fill="black"/>
<path d="M24.4119 5.72095C25.4402 5.72102 26.3668 6.34277 26.7568 7.29426L53.4677 72.4613C53.6023 72.7896 53.9221 73.0044 54.277 73.0044C54.6318 73.0044 54.9516 72.7896 55.0862 72.4613L81.7972 7.29426C82.1872 6.34273 83.1136 5.72096 84.142 5.72095H106.019C107.418 5.72095 108.553 6.85551 108.553 8.25507V103.329C108.553 104.729 107.418 105.863 106.019 105.863H90.5503C89.1507 105.863 88.0161 104.729 88.0161 103.329V41.1788C88.0161 40.9049 87.7939 40.6827 87.52 40.6827C87.3173 40.6827 87.135 40.8063 87.0597 40.9945L61.9072 103.782C61.522 104.743 60.59 105.374 59.5543 105.374H49.0015C47.9647 105.374 47.0324 104.742 46.648 103.78L21.493 40.7501C21.4179 40.562 21.2359 40.4384 21.0333 40.4383C20.7599 40.4383 20.5379 40.6598 20.5378 40.9332V103.329C20.5378 104.729 19.4032 105.863 18.0036 105.863H2.53412C1.13471 105.863 0 104.729 0 103.329V8.25507C0 6.85551 1.13518 5.72095 2.53474 5.72095H24.4119Z" fill="black"/>
<path d="M212.76 5.72095C214.16 5.72105 215.294 6.85558 215.294 8.25507V103.329C215.294 104.729 214.16 105.863 212.76 105.863H196.998C195.599 105.863 194.464 104.729 194.464 103.329V8.25507C194.464 6.85552 195.599 5.72096 196.998 5.72095H212.76Z" fill="black"/>
<path d="M465.313 5.72095C466.713 5.72096 467.847 6.85552 467.847 8.25507V58.4964C467.847 58.9203 468.191 59.2641 468.615 59.2641C468.841 59.2641 469.056 59.1641 469.201 58.9913L492.27 31.6567C492.751 31.0862 493.46 30.7571 494.207 30.7571H511.434C513.598 30.7571 514.766 33.2954 513.359 34.9394L490.35 61.8113C489.604 62.6835 489.536 63.9492 490.187 64.8954L515.628 101.893C516.784 103.575 515.58 105.863 513.54 105.863H495.304C494.463 105.863 493.676 105.445 493.204 104.748L475.332 78.2948C474.402 76.9182 472.421 76.7944 471.326 78.0442L468.475 81.2997C468.071 81.7618 467.847 82.3548 467.847 82.9689V103.329C467.847 104.729 466.713 105.863 465.313 105.863H449.551C448.151 105.863 447.017 104.729 447.017 103.329V8.25507C447.017 6.85558 448.151 5.72106 449.551 5.72095H465.313Z" fill="black"/>
<path d="M539.948 30.7571C541.347 30.7571 542.482 31.8917 542.482 33.2913V103.329C542.482 104.729 541.347 105.863 539.948 105.863H524.186C522.787 105.863 521.652 104.729 521.652 103.329V33.2913C521.652 31.8917 522.787 30.7571 524.186 30.7571H539.948Z" fill="black"/>
<path d="M532.116 0C535.213 4.16107e-05 537.853 1.04316 540.037 3.12929C542.254 5.18291 543.362 7.64476 543.362 10.5133C543.362 13.4143 542.254 15.9082 540.037 17.9944C537.853 20.048 535.213 21.0747 532.116 21.0748C529.019 21.0747 526.362 20.048 524.145 17.9944C521.961 15.9082 520.87 13.4143 520.869 10.5133C520.87 7.64471 521.961 5.18293 524.145 3.12929C526.362 1.04312 529.019 3.16137e-05 532.116 0Z" fill="black"/>
</svg>
